<?xml version="1.0" encoding="UTF-8"?>
<svg version="1.1" viewBox="0 0 2048 544" width="1280" height="1280" xmlns="http://www.w3.org/2000/svg">
<path transform="translate(1162,33)" d="m0 0h54l7 2 5 5 9 11 6 10 2 8 14 119 6 46 7 59 5 36 4 37 2 25 1 6 1-1 1-117v-208l2-8 12-14 13-12 5-3 15-1h112l11 1 1 1 2 35 2-5 9-9 11-9 14-12 2-1 11-1h40l10 1 1 1 1 33v298l37 4 41 5 5 1v-310l7-8 10-8 5-6 11-8 4-2 23-1h25l12 1 2 2 1 40v327l-1 22-2 18-10 4-11 9-9 8-7 4h-13l-34-3-12-3-1-1-1-27-15 8-14 10-7 6-18-1-51-7-61-7-15-2-2-1-1-51v-299l-9 6-13 11-15 12-3 3-10 1h-29v69l18 1 33 1 10 1 1 1v54l-16 12-14 14-2 1h-31l1 85v28l-1 15-6 3-7 3-9 7-11 11-10 1-28-2-17-3-2-3-2-15v-6l-14 10-12 12-2 1h-17l-41-3-5-2-3-12-4-21-1-6-4 1-8 14-7 8-8 7-9 10-25-1-30-2-8-1v-12l3-28 13-83 8-49 10-67 10-68 8-47 5-20 4-8z" fill="#020101"/>
<path transform="translate(159,24)" d="m0 0 20 1 20 5 31 12 15 8 13 9 13 12 7 8 8 13 4 10 3 17 1 14v36l-1 9-2 1-17 1-31 1h-17l-9-7-11-11-17-12-5-5-2-14h-3l-2 10-1 80h62l17 1 8 6 10 9 12 11 3 8 1 24 1 92 1 52 1 3 2 1v-12l2-28 13-75 5-32 7-53 10-62 8-50 12-66 3-13 3-4 3-1h69l12 6 13 10 8 7 5 9 3 13 7 46 9 53 8 49 11 68 6 32 13 81 3 20v10l-7 3-38 5h-11l-14-11-18-10-7-3-4-16-2-5-14 1-14 3-2 9-5 34-2 5-16 4-25 5h-15l-23-14-18-11-1 10-1 22-25 5-9-1-8-5-7 4-11 8-16 8-15 4-13 2h-14l-20-4-17-7-35-20-13-11-8-10-8-16-4-16-1-7v-301l5-21 8-17 8-10 6-7 14-9 19-8 16-4zm18 291-1 1v65h5l1-44v-16l-2-6z" fill="#020101"/>
<path transform="translate(1796,33)" d="m0 0h52l5 5 6 18 3 11h3l8-8 7-8 9-8 13-9 4-1h62l9 1-3 12-14 45-8 29-17 55-16 50-1 4v20l13 52 10 38 20 82 11 49 1 9-21 11-21 13-6 3-18-4-28-7-14-3-4-4-7-24-4-15-2-1-2 6-5 9-7 2-7 3-11 8-8 5h-10l-53-8-5-3 1-9 7-27 4-17 11-35 8-25 13-44 12-36 4-18-1-10-7-28-14-47-12-44-12-41-5-21v-7l7-6 10-8 9-7 8-5z" fill="#EA1813"/>
<path transform="translate(549,33)" d="m0 0h106l22 3 16 5 14 9 11 9 7 7 7 8 9 10 8 15 3 11 1 6v106l-4 17-7 13-9 10-7 6-9 6 1 6 12 36 20 56 12 28 8 21v3l-7 2-31 3-17 1h-11l-8-5-16-13-10-9-5-10-21-64-3-5h-1l1 11v96l-16 3-20 3-21 1-11-8-13-10-10-8-3-4-2-21v-74l1-278zm94 89-1 75 6-2 7-7 1-2 1-11v-47l-2-6z" fill="#EA1813"/>
<path transform="translate(848,25)" d="m0 0h33l19 5 20 9 12 8 13 12 11 11 9 11 7 10 4 9 2 7 1 11v45l-1 7-3 1h-59l-10-9-14-14-5-9-3-13-1-4-7 1-1 8-1 24-1 113-1 76 9-3 4-4 2-6 1-45 6-2 16-1h38l6 2 10 9 11 10 4 8v60l-1 9-4 12-5 9-9 10-9 7-14 7-17 5-12 2h-33l-21-5-14-6-16-10-13-10-9-9-7-8-9-10-7-14-4-15-1-7v-232l2-16 4-15 8-16 6-8 12-12 15-8 21-6z" fill="#EA1813"/>
<path transform="translate(143,33)" d="m0 0h35l16 3 13 5 11 6 10 8 8 9 7 12 6 18 2 13 1 14v19l-3 2h-56l-1-21-2-14-4-10-6-8-8-5-7-2h-11l-10 4-6 5-5 8-2 9v258l1 19 4 10 5 7 8 3 13 1 9-2 9-6 6-9 1-3 1-20 2-88h-30l-5-1v-29l1-18h92v211l-6 2-17 2h-7l-5-19-5 5-11 12-11 9-16 8-13 4-11 2h-17l-13-4-11-6-11-8-9-11-8-16-4-16-1-9v-279l2-23 4-14 8-15 8-10 11-9 16-8 14-4z" fill="#EA1813"/>
<path transform="translate(362,39)" d="m0 0h35l28 1 3 8 32 180 8 57 12 71 9 51-1 4-12 2-33 3h-7l-2-17-6-30-14 1-52 5-4 22-3 24-11 3-32 5-14 1 1-11 12-74 13-87 9-61 22-127 5-29z" fill="#EA1813"/>
<path transform="translate(1156,40)" d="m0 0h60l7 1 4 16 6 42 8 64 12 81 10 77 6 40 5 30v6h-11l-39-3-3-1-6-41-56-1-3-1-6 41-1 1h-35l-12-1-1-3 9-52 14-97 8-49 12-72 10-73z" fill="#EA1813"/>
<path transform="translate(996,33)" d="m0 0h51l10 5 13 12 7 7 4 8v350l-1 1h-26l-39-1-6-3-17-17-4-7v-276l1-76 1-2z" fill="#EA1813"/>
<path transform="translate(1796,33)" d="m0 0h52l5 5 6 18 3 11h3l8-8 7-8 9-8 13-9 4-1h62l9 1-3 12-14 45-8 29-17 55-16 50-1 4v20l13 52 10 38 20 82 11 49 1 9-21 11-21 13-6 3-18-4-28-7-14-3-4-4-7-24-4-15-2-1-2 6-5 9-7 2-7 3-11 8-8 5h-10l-53-8-5-3 1-9 7-27 4-17 11-35 8-25 13-44 12-36 4-18-1-10-7-28-14-47-12-44-12-41-5-21v-7l7-6 10-8 9-7 8-5zm-6 6 1 7 15 55 18 62 11 46 7 24 1 9-2 8-9 29-9 33-15 48-13 42-13 44v3l47 7 8 1 3-8 8-26 16-49 7-19 3-9 2 2 8 28 11 41 12 47 2 3 21 4 27 5h9l-2-12-20-82-11-45-12-50-8-34-1-6v-14l4-18 11-39 17-55 17-56 7-24v-2l-60 1-3 3-15 49-11 32-2 6h-2l-3-9-10-32-12-45-3-4z" fill="#020101"/>
<path transform="translate(848,25)" d="m0 0h33l19 5 20 9 12 8 13 12 11 11 9 11 7 10 4 9 2 7 1 11v45l-1 7-3 1h-59l-10-9-14-14-5-9-3-13-1-4-7 1-1 8-1 24-1 113-1 76 9-3 4-4 2-6 1-45 6-2 16-1h38l6 2 10 9 11 10 4 8v60l-1 9-4 12-5 9-9 10-9 7-14 7-17 5-12 2h-33l-21-5-14-6-16-10-13-10-9-9-7-8-9-10-7-14-4-15-1-7v-232l2-16 4-15 8-16 6-8 12-12 15-8 21-6zm-2 8-18 4-16 6-10 9-8 10-8 16-4 14-1 7v236l2 14 4 13 7 13 9 10 8 7 16 8 13 4 7 1h30l17-4 19-9 12-9 8-8 6-10 4-10 2-9 1-10v-45l-31-1h-24v13l-3 42-4 4-8 4-4 1h-13l-11-3-8-6-3-4-2-7-1-12-1-191 1-23 3-11 6-9 7-5 7-2h13l9 3 6 5 5 10 2 18-2 14-1 4 4 1h54l2-1v-15l-3-26-4-16-7-14-9-11-11-8-15-7-15-4-6-1z" fill="#030101"/>
<path transform="translate(1320,39)" d="m0 0h69l62 1v41l-1 7-1 1-76 1-1 110 64 1v46l-1 1h-35l-22-1-6-1v154l-21-1-31-3-1-8z" fill="#EA1813"/>
<path transform="translate(549,33)" d="m0 0h106l22 3 16 5 14 9 11 9 7 7 7 8 9 10 8 15 3 11 1 6v106l-4 17-7 13-9 10-7 6-9 6 1 6 12 36 20 56 12 28 8 21v3l-7 2-31 3-17 1h-11l-8-5-16-13-10-9-5-10-21-64-3-5h-1l1 11v96l-16 3-20 3-21 1-11-8-13-10-10-8-3-4-2-21v-74l1-278zm4 6-2 1v365h10l39-4 5-2-2-141-1-3h31l2 13 6 24 11 36 8 30 12 40 3 1 50-2 4-1-1-8-9-29-13-41-11-32-13-36-1-5 5-2 9-6 10-9 9-14 4-12 1-5 1-14v-74l-2-17-5-16-7-12-11-12-11-7-10-4-5-1-17-1z" fill="#020101"/>
<path transform="translate(1517,39)" d="m0 0h22l13 1 1 19v314l15 1 63 7 1 5 1 26v17h-15l-88-10-26-3-5-2v-191l1-183z" fill="#EA1813"/>
<path transform="translate(1685,39)" d="m0 0h29l22 1v400l-16-1-32-4-3-1-1-102v-292z" fill="#EA1813"/>
<path transform="translate(996,33)" d="m0 0h51l10 5 13 12 7 7 4 8v350l-1 1h-26l-39-1-6-3-17-17-4-7v-276l1-76 1-2zm7 6-8 1v345h52l1-1-1-222-1-122-27-1z" fill="#030101"/>
<path transform="translate(605,86)" d="m0 0h37l9 3 7 7 5 11 1 3v68l-3 14-6 8-5 4-7 2h-38zm38 36-1 75 6-2 7-7 1-2 1-11v-47l-2-6z" fill="#020101"/>
<path transform="translate(391,156)" d="m0 0 2 1 4 13 16 98 7 43 2 11v5l-17 2-39 3 1-9 6-39 11-86 6-37z" fill="#020101"/>
<path transform="translate(1188,160)" d="m0 0 2 2 3 17 16 127v5h-29l-18-1 2-14 13-82 8-47z" fill="#020101"/>
<path transform="translate(1181,211)" d="m0 0 3 1v17l2 13 1 16 5 27v8l-2 7v8l-1 1 19 1v-2l-4 1 3-5 2 2v5h-29l-18-1 2-14 11-70 2-1 2-12z" fill="#140405"/>
<path transform="translate(362,39)" d="m0 0h35l28 1 1 1v5l-3-4-60-1-2 15-9 52-10 57-9 53-6 43-5 35-9 56-8 48-2 11h-1v-10l9-56 13-87 9-61 22-127 5-29z" fill="#F82B1F"/>
<path transform="translate(1790,39)" d="m0 0 39 1v1l-36 1 7 19 4 16 10 36 12 43 7 28 6 26 5 18v6l-2-1-10-36-9-38-19-65-14-51z" fill="#F6291D"/>
<path transform="translate(1517,39)" d="m0 0h22l13 1v313h-1l-1-298-1-13-46-1v64l-1 32h-1l-1-19v-78z" fill="#FD3223"/>
<path transform="translate(1872,71)" d="m0 0 3 1v9l-3 7-1 15 1 3h5l8-12 4-4h2l-3 11-8 23-3 6h-2l-5-12-7-22v-13l4-2 4-9z" fill="#130304"/>
<path transform="translate(1147,103)" d="m0 0h1l-1 14-4 28-9 54-5 25-3 23-5 35-8 54-4 21h-1v-10l6-39 10-69 8-49 12-72 2-13z" fill="#F72A1E"/>
<path transform="translate(1321,39)" d="m0 0h68l62 1v41l-1 7h-2l1-47h-125l-1 115-1 15h-1z" fill="#F92D20"/>
<path transform="translate(1963,39)" d="m0 0h5l-3 12-14 47-21 68-10 34-6 22-2 2 1-8 9-35 9-29 6-22 7-22 5-16 9-30 4-15 2-6h-35v-1z" fill="#F82B1F"/>
<path transform="translate(846,33)" d="m0 0h33l14 3 14 5 13 7 9 8 7 10 6 12 4 16 1 6v15l-2-4-2-18-3-12-5-12-6-8v-2l-3-1-6-7-16-9-17-5-16-2h-18l-14 2-15 4-13 6-8 7-9 14-6 12-3 15-2 24-2 4v-24l3-15 6-15 7-11 9-10 8-6 17-6z" fill="#FB3021"/>
<path transform="translate(633,253)" d="m0 0 3 2 10 35 5 22 14 52 8 27 2 4 10 1v1l-12 2-3-8-14-47-7-26-10-33-6-27z" fill="#F72B1F"/>
<path transform="translate(398,172)" d="m0 0h1l9 45 7 44 7 48 1 5v9l-2-1-8-47-11-69-4-24z" fill="#F72B1E"/>
<path transform="translate(1517,39)" d="m0 0h22l10 1v1h-46v64l-1 32h-1l-1-19v-78z" fill="#FA2E20"/>
<path transform="translate(1880,356)" d="m0 0 2 3 6 18 10 37 10 44 3 8h-3l-6-21-14-55-8-29z" fill="#F6291D"/>
<path transform="translate(1172,235)" d="m0 0h1v10l-9 57-2 8h18l24 1v1l-5 1h-37l-2-1 1-11 5-30 3-21 2-12z" fill="#F72A1E"/>
<path transform="translate(944,312)" d="m0 0h1v34l-4 15-6 11-9 10-10 8-17 9-8 3h-6l2-2 16-7 10-5 9-6 9-9 9-20 2-9 1-9z" fill="#F92C1F"/>
<path transform="translate(381,209)" d="m0 0h1v11l-9 71-4 26-2 1v-10l3-18 2-21 2-10 6-46z" fill="#F6291D"/>
<path transform="translate(1275,320)" d="m0 0h1l3 27-1 17-2-3-1-3h-4l-2-3 1-5 2-1-1-12v-10l3-3z" fill="#130304"/>
<path transform="translate(143,33)" d="m0 0h30v1l-36 2-16 5-16 8-8 7-7 8-9 17-5 16h-1v-8l5-13 6-11 8-10 11-9 16-8 14-4z" fill="#F92C1F"/>
<path transform="translate(639,40)" d="m0 0h30l13 4 10 6 10 9 9 13 5 12 1 4v8l-2-3-2-9-7-14-7-9-4-5-10-8-13-5-6-1-27-1z" fill="#FA2E20"/>
<path transform="translate(1200,228)" d="m0 0 2 3 5 38 3 27v12l-2-2-8-64z" fill="#F6291D"/>
<path transform="translate(391,156)" d="m0 0 2 1 4 13 1 11-6 3-5-1 2-17z" fill="#140405"/>
<path transform="translate(76,412)" d="m0 0 2 3 5 13 6 10 7 6v2l5 2 11 8 8 4 5 2v2l-7-1-12-6-13-10-8-10-8-16z" fill="#F82B1F"/>
<path transform="translate(370,315)" d="m0 0 5 1 5 8-1 5 3 2-16 1 1-9 1-6h2z" fill="#140405"/>
<path transform="translate(1371,201)" d="m0 0h65v46h-7l3-3 1-8 1-33-63-1z" fill="#F92C1F"/>
<path transform="translate(783,343)" d="m0 0 2 2 4 15 6 12 8 10 7 6 14 8 16 5 4 2h-8l-14-5-14-8-12-12-8-14-4-11z" fill="#F72A1E"/>
<path transform="translate(1827,301)" d="m0 0 1 3-8 27-6 21-9 26h-1l1-8 13-42 8-26z" fill="#F6281D"/>
<path transform="translate(1802,382)" d="m0 0 1 4-7 23-5 17-4 14-2 8h8v1h-11l2-9 14-48z" fill="#F82B1F"/>
<path transform="translate(429,366)" d="m0 0h2l4 16 4 28 2 3h7v2l-5 1h-7l-2-17-2-10-2-16z" fill="#F92D20"/>
<path transform="translate(1188,160)" d="m0 0 2 2 1 8-1 14-2 4-4-1-1-9 3-14z" fill="#140405"/>
<path transform="translate(1824,159)" d="m0 0 2 3 7 30v2h2l8 31 1 9-2-1-10-36-8-34z" fill="#F12118"/>
<path transform="translate(1931,157)" d="m0 0 1 3-8 26-10 36-2 2 1-8 9-35 7-21z" fill="#F72A1E"/>
<path transform="translate(1863,369)" d="m0 0h1l-1 8-16 49h-2l1-7 5-16 9-27z" fill="#F72B1E"/>
<path transform="translate(889,93)" d="m0 0 3 4 3 10v23l5 3 7 1v1h-18l2-9 1-12-2-15z" fill="#F92C1F"/>
<path transform="translate(1963,39)" d="m0 0h5l-3 12-5 17-3 1 1-7 4-15 2-6h-35v-1z" fill="#FA2E20"/>
<path transform="translate(661,99)" d="m0 0 4 5 2 7v38l-1 18h-1l-1-55-3-8z" fill="#FB3021"/>
<path transform="translate(312,349)" d="m0 0 1 3-8 48-2 11h-1v-10l8-50z" fill="#F72A1E"/>
<path transform="translate(792,68)" d="m0 0v3l-5 13-2 11-2 24-2 4v-24l3-15 6-15z" fill="#FA2E20"/>
<path transform="translate(840,34)" d="m0 0h6l-2 2-20 5-13 6-8 7-9 14h-2l2-6 8-10 7-7 10-5 17-5z" fill="#FD3526"/>
<path transform="translate(1161,305)" d="m0 0h1v5h18l24 1v1l-5 1h-37l-2-1v-6z" fill="#F92C1F"/>
<path transform="translate(168,81)" d="m0 0 6 1 8 5 6 7 4 9 2 9v17h-1l-3-22-4-10-6-8-8-5-4-2z" fill="#F6291D"/>
<path transform="translate(1147,103)" d="m0 0h1l-1 14-4 28-2 8-2 1 1-12 6-37z" fill="#F6291D"/>
<path transform="translate(1216,350)" d="m0 0 2 2 3 20 3 16 1 3 3 2h-7l-5-33z" fill="#F72A1E"/>
<path transform="translate(1e3 39)" d="m0 0h16l27 1v9h-2l-1-7-46-1v21h-1v-22z" fill="#FA2E20"/>
<path transform="translate(143,33)" d="m0 0h30v1l-36 2-16 5-16 8-2-1 9-6 15-6z" fill="#FB3021"/>
<path transform="translate(888,290)" d="m0 0h3l1 2v11l-1 17-3 1z" fill="#2C0808"/>
<path transform="translate(416,367)" d="m0 0h11l-4 2-29 3h-22v-1l5-1z" fill="#F72A1E"/>
<path transform="translate(602,255)" d="m0 0h6l-1 7-2 5-1 51h-1z" fill="#140405"/>
<path transform="translate(662,361)" d="m0 0h2l9 30 2 4 10 1v1l-12 2-3-8-8-27z" fill="#F72A1E"/>
<path transform="translate(184,389)" d="m0 0h2l-2 5-5 6-8 5h-2v-4h2v-2l8-7z" fill="#140405"/>
<path transform="translate(1156,40)" d="m0 0h22v1l-21 1-1 12-3 20h-1v-15l3-18z" fill="#F92C1F"/>
<path transform="translate(934,67)" d="m0 0 4 2 6 15 3 16v15l-2-4-2-18-3-12-5-12z" fill="#F72A1E"/>
<path transform="translate(387,200)" d="m0 0 4 1-2 15-2 3h-2l-2-8v-6h2z" fill="#140405"/>
<path transform="translate(138,396)" d="m0 0 7 1 8 6 1 3-9-1-6-4-2-4z" fill="#140405"/>
<path transform="translate(1899,424)" d="m0 0 2 4 8 33 2 5h-3l-6-21-3-12z" fill="#F72B1E"/>
<path transform="translate(373,279)" d="m0 0h1l-1 12-4 26-2 1v-10l3-18 1-9z" fill="#F72A1E"/>
<path transform="translate(1205,269)" d="m0 0h2l3 27v12l-2-2-3-24z" fill="#F72A1E"/>
<path transform="translate(1843,247)" d="m0 0 1 4-11 34h-1l1-9 8-26z" fill="#F6291D"/>
<path transform="translate(177,400)" d="m0 0h4l-1 3-11 5-15 1-10-2v-1h18l9-2z" fill="#F6291D"/>
<path transform="translate(1114,319)" d="m0 0 1 4-5 30-2 4v-10l4-26z" fill="#F72A1E"/>
<path transform="translate(783,343)" d="m0 0 2 2 4 15 6 12 7 9-1 2-7-8-8-15-3-11z" fill="#F72A1E"/>
<path transform="translate(872,105)" d="m0 0h1l2 19-1 31h-1l-1-29z" fill="#140405"/>
<path transform="translate(1843,429)" d="m0 0h1l-1 9-5 18-4 1 3-10z" fill="#F92D20"/>
<path transform="translate(376,251)" d="m0 0h1v10l-2 15-2 4h-1v-11l3-17z" fill="#F82B1F"/>
<path transform="translate(1153,356)" d="m0 0h1v8l-4 27-3-1 3-21z" fill="#F92C1F"/>
<path transform="translate(1922,187)" d="m0 0 1 3-9 32-2 2 1-8 6-24z" fill="#F6281D"/>
<path transform="translate(1854,397)" d="m0 0 1 4-8 25h-2l1-7 5-16z" fill="#F72A1E"/>
<path transform="translate(398,172)" d="m0 0h1l5 25-1 9h-1l-4-24z" fill="#F6281D"/>
<path transform="translate(910,43)" d="m0 0 10 5 9 8 7 10h-3l-4-5v-2l-3-1-6-7-10-6z" fill="#F92D20"/>
<path transform="translate(910,390)" d="m0 0m-2 1h2l-1 3-15 7-9 1 2-2 16-7z" fill="#F82B1F"/>
<path transform="translate(1908,40)" d="m0 0h18v2l-19 1-3 11-2 3 1-8 3-8z" fill="#F72A1E"/>
<path transform="translate(886,348)" d="m0 0 3 1-8 5-10 3h-10l-6-1v-1l17-1 10-4z" fill="#F82B1E"/>
<path transform="translate(187,448)" d="m0 0h2v2l-14 8-8 3h-5l4-3 15-6z" fill="#F72A1E"/>
<path transform="translate(893,125)" d="m0 0h1l2 6 4 2 7 1v1h-18l2-9z" fill="#FB2F21"/>
<path transform="translate(1802,382)" d="m0 0 1 4-7 23-3 2 4-16 4-12z" fill="#F6281D"/>
<path transform="translate(1269,371)" d="m0 0 2 2 3 18v5h-9v-1h6l-2-18z" fill="#F82B1F"/>
<path transform="translate(944,312)" d="m0 0h1v34l-3 4-1-2 2-13z" fill="#FA2F21"/>
<path transform="translate(1472,55)" d="m0 0m-2 1 2 1-9 9-1 16h-2l-1-6 1-10z" fill="#5C4D4D"/>
<path transform="translate(1790,39)" d="m0 0 39 1v1l-34 1-5 1z" fill="#FA392D"/>
<path transform="translate(809,45)" d="m0 0 3 1-9 8-9 14h-2l2-6 8-10z" fill="#FC3122"/>
<path transform="translate(1962,463)" d="m0 0 2 1 2 12h-9l-2-2 6-1z" fill="#F92D20"/>
<path transform="translate(76,412)" d="m0 0 2 3 5 13 4 7-1 3-6-10-4-10z" fill="#F72A1E"/>
<path transform="translate(1165,284)" d="m0 0h1l-1 12-2 11-2-2 2-16z" fill="#F5281C"/>
<path transform="translate(661,189)" d="m0 0h2l-1 6-7 8-6 3-3-1 9-6 5-7z" fill="#F6291D"/>
<path transform="translate(1827,301)" d="m0 0 1 3-6 21-2 1 1-8 5-16z" fill="#F72A1E"/>
<path transform="translate(1135,182)" d="m0 0h1l-1 11-1 6-3 1 2-16z" fill="#F92C1F"/>
<path transform="translate(1874,344)" d="m0 0 3 4 1 5-6 2-1-4z" fill="#140405"/>
<path transform="translate(947,119)" d="m0 0 2 1v15h-8l3-2 2-2z" fill="#F6281D"/>
<path transform="translate(1156,40)" d="m0 0h22v1l-21 1v5l-3 2 1-8z" fill="#FB3021"/>
<path transform="translate(1151,80)" d="m0 0 1 4-3 17h-1v-11l2-9z" fill="#F82B1F"/>
<path transform="translate(1220,380)" d="m0 0h2l3 11 3 2h-7z" fill="#F92D1F"/>
<path transform="translate(707,221)" d="m0 0 1 3-10 11-3-1 8-8z" fill="#F72A1E"/>
<path transform="translate(1838,215)" d="m0 0 1 3h2l3 10v6l-2-1-4-14z" fill="#F5271C"/>
<path transform="translate(119,39)" d="m0 0h2v2l-16 8-2-1 9-6z" fill="#FD3223"/>
<path transform="translate(354,407)" d="m0 0h1v14l-2 1h-7l3-2 3-1z" fill="#FA2F21"/>
<path transform="translate(1370,390)" d="m0 0 2 1v9h-7l-3-2 7-2z" fill="#F92C1F"/>
<path transform="translate(789,364)" d="m0 0h2l4 8 7 9-1 2-7-8-5-9z" fill="#F5281D"/>
<path transform="translate(80,79)" d="m0 0 1 2-5 16h-1v-8l3-9z" fill="#F82B1E"/>
<path transform="translate(486,399)" d="m0 0 2 2 1 9-1 1h-8l4-2 1-1z" fill="#F72B1E"/>
<path transform="translate(419,306)" d="m0 0 1 3h2l1 5v9l-2-1-2-11z" fill="#F5281C"/>
<path transform="translate(370,300)" d="m0 0h1l-1 11-2 7h-1v-10z" fill="#F5281C"/>
<path transform="translate(1434,236)" d="m0 0h1l1 11h-7l3-3 1-7z" fill="#F92D20"/>
<path transform="translate(889,93)" d="m0 0 3 4 2 5-1 12h-1l-2-15z" fill="#F5271C"/>
<path transform="translate(1843,429)" d="m0 0h1l-1 9-2 7-2-2 2-9z" fill="#F72A1E"/>
<path transform="translate(144,406)" d="m0 0h12l9 1v1l-11 1-10-2z" fill="#F92C1F"/>
<path transform="translate(1843,247)" d="m0 0 1 4-3 8-3 3 2-9z" fill="#F4261B"/>
<path transform="translate(335,195)" d="m0 0 1 4-2 10-2 1 1-13z" fill="#F6291D"/>
<path transform="translate(1849,412)" d="m0 0h1l-1 8-2 6h-2l1-7z" fill="#F5271C"/>
<path transform="translate(995,378)" d="m0 0 4 4 7 2v1h-11z" fill="#FD3223"/>
<path transform="translate(1203,259)" d="m0 0 3 1v9l-1 5h-1z" fill="#F4261C"/>
<path transform="translate(1202,246)" d="m0 0h2l1 14-3-2z" fill="#F82B1F"/>
<path transform="translate(784,91)" d="m0 0 1 4-2 5-1 10h-1v-11l1-7z" fill="#F12219"/>
<path transform="translate(1785,441)" d="m0 0h1l-1 7h8v1h-11l1-6z" fill="#FB3021"/>
<path transform="translate(712,80)" d="m0 0 3 1 2 7v8l-2-3-2-9z" fill="#F72A1E"/>
<path transform="translate(1896,414)" d="m0 0h2l1 5v10l-2-4-1-4z" fill="#F4251B"/>
<path transform="translate(603,391)" d="m0 0 2 4-1 5h-10v-1l8-1z" fill="#F92D20"/>
<path transform="translate(300,422)" d="m0 0h1v5l4 2-7 1v-5z" fill="#F72A1E"/>
<path transform="translate(1153,356)" d="m0 0h1v8l-1 6-2-1 1-11z" fill="#F6291D"/>
<path transform="translate(658,348)" d="m0 0 1 2h2l2 7v4h-2l-3-10z" fill="#F5281C"/>
</svg>
